<svg xmlns="http://www.w3.org/2000/svg" viewBox="0 0 256 256" role="img"><title>NBX Projects — símbolo do macaco</title><path d="M165 172c32 1 48-11 48-31 0-12-8-20-19-20-10 0-17 7-17 16 0 7 5 12 12 12" fill="none" stroke="#302B28" stroke-width="20" stroke-linecap="round" stroke-linejoin="round"/><circle cx="63" cy="94" r="28" fill="#302B28"/><circle cx="193" cy="94" r="28" fill="#302B28"/><circle cx="63" cy="94" r="13" fill="#E7D9C9"/><circle cx="193" cy="94" r="13" fill="#E7D9C9"/><path d="M45 115c0-44 34-76 83-76s83 32 83 76v21c0 40-33 69-83 69s-83-29-83-69z" fill="#302B28"/><path d="M64 119c0-25 23-44 64-44s64 19 64 44v12c0 27-25 48-64 48s-64-21-64-48z" fill="#E7D9C9"/><circle cx="102" cy="122" r="7" fill="#302B28"/><circle cx="154" cy="122" r="7" fill="#302B28"/><path d="M119 140c4 7 14 7 18 0" fill="none" stroke="#302B28" stroke-width="6" stroke-linecap="round"/></svg>